<svg xmlns="http://www.w3.org/2000/svg" xmlns:xlink="http://www.w3.org/1999/xlink" width="500" zoomAndPan="magnify" viewBox="0 0 375 374.999991" height="500" preserveAspectRatio="xMidYMid meet" version="1.0"><defs><clipPath id="1a61afea0b"><path d="M 65 0 L 342 0 L 342 195.5625 L 65 195.5625 Z M 65 0 " clip-rule="nonzero"/></clipPath><clipPath id="91050fb73f"><path d="M 33 125.117188 L 310.253906 125.117188 L 310.253906 374.769531 L 33 374.769531 Z M 33 125.117188 " clip-rule="nonzero"/></clipPath></defs><g clip-path="url(#1a61afea0b)"><path fill="#000000" d="M 65.917969 162.351562 L 66.085938 101.558594 L 66.085938 93.488281 L 226.996094 0 L 310.019531 47.957031 C 330.359375 59.691406 340.542969 71.824219 341.050781 85.109375 C 341.050781 85.390625 341.050781 85.789062 341.050781 86.210938 L 340.996094 143.871094 C 340.996094 156.847656 331.996094 168.585938 314.449219 178.796875 C 310.480469 181.113281 306.371094 183.160156 302.128906 184.929688 C 297.886719 186.699219 293.542969 188.179688 289.101562 189.371094 C 284.660156 190.5625 280.160156 191.453125 275.601562 192.042969 C 271.042969 192.636719 266.464844 192.921875 261.867188 192.902344 L 259.804688 192.902344 C 240.257812 192.507812 220.140625 186.386719 199.859375 174.679688 L 179.070312 162.6875 L 130.066406 191.210938 L 123.042969 195.300781 Z M 65.917969 162.351562 " fill-opacity="1" fill-rule="nonzero"/></g><path fill="#efebe7" d="M 331.261719 85.535156 C 331.675781 95.105469 324.472656 104.199219 309.652344 112.8125 C 305.917969 115 302.050781 116.917969 298.050781 118.570312 C 294.050781 120.21875 289.953125 121.582031 285.761719 122.664062 C 281.574219 123.746094 277.328125 124.53125 273.027344 125.019531 C 268.726562 125.511719 264.414062 125.703125 260.089844 125.59375 C 242.257812 125.253906 223.875 119.613281 204.9375 108.664062 L 179.210938 93.800781 L 123.183594 126.410156 L 75.988281 99.160156 L 226.996094 11.285156 L 305.113281 56.421875 C 322.113281 66.273438 330.832031 75.980469 331.261719 85.535156 Z M 245.082031 90.976562 C 248.121094 91.214844 251.132812 91.011719 254.117188 90.371094 C 257.097656 89.726562 259.925781 88.667969 262.597656 87.199219 C 267.308594 84.375 269.765625 81.1875 269.878906 77.4375 C 269.988281 73.683594 265.675781 69.257812 256.902344 64.207031 L 243.640625 56.421875 L 209.789062 76.167969 L 221.300781 82.824219 C 224.878906 85.117188 228.671875 86.964844 232.6875 88.359375 C 236.703125 89.757812 240.824219 90.667969 245.050781 91.089844 " fill-opacity="1" fill-rule="nonzero"/><g clip-path="url(#91050fb73f)"><path fill="#000000" d="M 181.441406 368.808594 L 127.046875 337.339844 L 127.046875 292.886719 L 88.605469 315.265625 L 81.742188 311.253906 L 33.167969 283.136719 L 33.304688 223.964844 L 33.304688 216.058594 L 189.925781 125.117188 L 270.929688 171.792969 C 286.085938 180.527344 296.300781 187.96875 302.121094 194.53125 C 303.359375 195.824219 304.46875 197.222656 305.445312 198.726562 C 306.417969 200.230469 307.246094 201.808594 307.921875 203.46875 C 308.597656 205.128906 309.113281 206.835938 309.46875 208.59375 C 309.824219 210.347656 310.011719 212.125 310.03125 213.914062 L 309.863281 269.875 C 309.859375 272.609375 309.445312 275.28125 308.628906 277.894531 C 305.882812 286.679688 298.828125 294.53125 287.347656 301.207031 C 278.097656 306.652344 268.167969 310.195312 257.558594 311.832031 C 252.332031 312.609375 247.078125 312.992188 241.796875 312.984375 C 236.488281 312.96875 231.207031 312.585938 225.953125 311.832031 C 224.578125 311.640625 223.207031 311.390625 221.722656 311.117188 C 221.574219 313.042969 221.316406 314.957031 220.957031 316.855469 C 220.308594 321.019531 219.035156 324.984375 217.136719 328.746094 L 197.285156 365.347656 L 192.070312 374.984375 Z M 181.441406 368.808594 " fill-opacity="1" fill-rule="nonzero"/></g><path fill="#efebe7" d="M 208.902344 268.144531 L 188.472656 305.679688 L 136.824219 275.859375 L 157.308594 235.664062 C 160.035156 230.464844 161.050781 226.675781 160.355469 224.292969 C 159.648438 222.425781 158.625 220.753906 157.285156 219.273438 C 155.941406 217.792969 154.375 216.613281 152.585938 215.726562 L 148.492188 213.503906 L 88.855469 248.183594 L 42.945312 221.660156 L 189.953125 136.234375 L 266.125 180.167969 C 280.257812 188.316406 289.867188 195.253906 294.957031 200.984375 C 296.132812 202.148438 297.136719 203.453125 297.957031 204.898438 C 298.777344 206.339844 299.386719 207.863281 299.789062 209.472656 C 300.191406 211.085938 300.371094 212.71875 300.324219 214.378906 C 300.277344 216.035156 300.003906 217.65625 299.511719 219.242188 C 297.683594 225.667969 292.070312 231.597656 282.679688 237.035156 C 274.480469 241.816406 265.683594 244.902344 256.292969 246.289062 C 246.683594 247.710938 237.074219 247.710938 227.460938 246.289062 C 219.941406 245.078125 212.617188 243.117188 205.496094 240.414062 C 208.339844 243.316406 210.507812 246.65625 212.003906 250.433594 C 212.472656 253.359375 212.351562 256.261719 211.648438 259.140625 C 211.1875 262.28125 210.269531 265.28125 208.902344 268.144531 Z M 221.667969 215.976562 C 225.722656 215.757812 229.519531 214.660156 233.0625 212.679688 C 237.804688 209.933594 239.9375 206.941406 239.460938 203.699219 C 239.105469 200.433594 234.601562 196.507812 226.28125 191.59375 L 206.15625 180.03125 L 176.28125 197.359375 L 195.5 208.507812 C 200.082031 210.746094 204.785156 212.6875 209.613281 214.328125 C 213.503906 215.757812 217.515625 216.289062 221.640625 215.921875 " fill-opacity="1" fill-rule="nonzero"/></svg>